/* XPM */
static char *_258fc48b6eb4de5ba6eeccaefbe9485DMMyAGAxmzfNsqb8[] = {
/* columns rows colors chars-per-pixel */
"50 50 2 1 ",
"  c #58B2FF",
". c #93CBFA",
/* pixels */
"..................................................",
"..................................................",
"..................................................",
".........     ....................................",
".......   ... ....................................",
"....... .....  ...................................",
"......  ...... ...................................",
"...... ....... ...................................",
"...... ....... ...    ............................",
"...... ......  ..  ..  ...........................",
"......  ..... ..  ....  ..........................",
".    .. ..... .  ...... ..........................",
"  ..  .  .... . .......  .........................",
" ....  .. .... ......... .........................",
" ......  ............... .........................",
"  .....................  .........................",
".  .......   ..   ....  ..........................",
"..   ..... . . ..      ...........................",
"..... ....   .  ..................................",
"....  .........   ................................",
"..   .....  .....   ..............................",
".  ...... .. ......  .............................",
".  ...... .. .......  ............................",
".. ...... ... ....... ............................",
"..  ..... ... .......  ...........................",
"...  ...  ... .......  ...........................",
"....  .  ....  .....  ............................",
".....   ......   ..  .............................",
"................    ..............................",
"..................................................",
"..................................................",
"..................................................",
"..................................................",
"..................................................",
"..................................................",
"..................................................",
"..................................................",
"..................................................",
"..................................................",
"..................................................",
"..................................................",
"..................................................",
"..................................................",
"..................................................",
"..................................................",
"..................................................",
"..................................................",
"..................................................",
"..................................................",
".................................................."
};
