/* XPM */
static char *_cf9302e23e14738eca8e196a87c6fa4bVt5dg3LzZezWHwN[] = {
/* columns rows colors chars-per-pixel */
"50 50 7 1 ",
"  c #710F0F",
". c #64421F",
"X c #091459",
"o c #992323",
"O c #AA8056",
"+ c #5B8CD5",
"@ c #93CBFA",
/* pixels */
"@@@@@@@@@@@@@@@@@@@@@@@@@@@@@@@@@@@@@@@@@@@@@@@@@@",
"@@@@@@@@@@@@@@@@@@@@@XXXXXXX@@@@@@@@@@@@@@@@@@@@@@",
"@@@@@@@@@@@@@@@@@@@@XXXXXXXXX@@@@@@@@@@@@@@@@@@@@@",
"@@@@@@@@@@@@@@@@@@@XX@@@@@@@XX@@@@@@@@@@@@@@@@@@@@",
"@@@@@@@@@@@@@@@@@@XX@@@@@@@@@XX@@@@@@@@@@@@@@@@@@@",
"@@@@@@@@@@@@@@@@@XX@@@@@@@@@@@XX@@@@@@@@@@@@@@@@@@",
"@@@@@@@@@@@@@@@@@XX@@@@@@@@@@@XX@@@@@@@@@@@@@@@@@@",
"@@@@@@@@@@@@@@@@@XX@@@@@@@@@@@XX@@@@@@@@@@@@@@@@@@",
"@@@@@@@@@@@@@@@@@XX@@@@@@@@@@@XX@@@@@@@@@@@@@@@@@@",
"@@@@@@@@@@@@@@@@@XXX@@@@@@@@@XXX@@@@@@@@@@@@@@@@@@",
"@@@@@@@@XX@@@@@@@@XX@@@@@@@@@XX@@@@@@@@XX@@@@@@@@@",
"@@@@@@@XXXXXXXXXXXXXXXXXXXXXXXXXXXXXXXXXXX@@@@@@@@",
"@@@@@@XXXXXXXXXXXXXXXXXXXXXXXXXXXXXXXXXXXXX@@@@@@@",
"@@@@@@@XXXXXXXXXXXXXXXXXXXXXXXXXXXXXXXXXXX@@@@@@@@",
"@@@@@@@@XX@@@@@@@@@@@XXXXXXX@@@@@@@@@@@XX@@@@@@@@@",
"@@@@@@@@@@@@@@@@@@@@@@X...X@@@@@@@@@@@@@@@@@@@@@@@",
"@@@@@@@@@@@@@@@@@@@@@@X.@.X@@@@@@@@@@@@@@@@@@@@@@@",
"@@@@ @@@@@@@@@@@@@@@@@X.@.X@@@@@@@@@@@@@@@@@@ @@@@",
"@@@ o @@@@@@@@@@@@@@@XX...XX@@@@@@@@@@@@@@@@ o @@@",
"@@  o  @@@@@@@@@@@@@@XXXXXXX@@@@@@@@@@@@@@@  o  @@",
"@@ ooo @@@@@@@@@@@@@@XXXXXXX@@@@@@@@@@@@@@@ ooo @@",
"@  ooo  @@@@@@@@@@@@@XXXXXXX@@@@@@@@@@@@@@  oooo @",
"@ ooooo @@@@@@@@@@@@@XXXXXXX@@@@@@@@@@@@@@ ooooo @",
"  ooXoo  @@@@@@@@@@@@XXXXXXX@@@@@@@@@@@@@  ooXoo  ",
" ooXXXoo @@@@@@@@@@@XXXXXXXXX@@@@@@@@@@@@ ooXXXoo ",
" oXXXXXo @@@@@@@@@@@XXXXXXXXX@@@@@@@@@@@@ oXXXXXo ",
" oX...XX @@@@@@@@@@XXXXXX+++XX@@@@@@@@@@@ XX...XX ",
" XX.@.XX @@@@@@@@@@XXXXX++@++X@@@@@@@@@@@@XX.@.XX@",
"@XX.@.XX@@@@@@@@@@@XXXX++@@@++@@@@@@@@@@@@XX.@.XX@",
"@XX...XX@@@@@@@@@@XXXXXX++@++XX@@@@@@@@@@XXX...XX@",
"@XXXXXXXX@@@@@@@@XXXXXXXX+++XXXX@@@@@@@@XXXXXXXXX@",
"@XXXXXXXXX@@@@@@XXXXXXXXXXXXXXXXX@@@@@@XXXXXXXXXX@",
"@XXXXXXXXXXXXXXXXXXXXXXXXXXXXXXXXXXXXXXXXXXXXXXXX@",
"@XXXXXXXXXXXXXXXXXXXXXXXXXXXXXXXXXXXXXXXXXXXXXXXX@",
"@XXXXXXXXXXXXXXXXXXXXXXXXXXXXXXXXXXXXXXXXXXXXXXXX@",
"@XXXXXXXXXXXXXXXXXXXXXOOO.OOXXXXXXXXXXXXXXXXXXXXX@",
"@@XXXXXXX+++XXXXXXXXX.OOOOOOOXXXXXXXXXXXXXXXXXXX@@",
"@@XXXXXX++@++XXXXXXX++++++++++XXXXXXXXXXXXXXXXX@@@",
"@@@XXXX++@@@++XXXXXOOOOOOOOOOOOXXXXXXXXXXXXXXX@@@@",
"@@@XXXXX++@++XXXXXXOOOOO+++OO.OXXXXXXXXXXXXXXX@@@@",
"@@@XXXXXX+++XXXXXXXOO.O++@++OOOXXXXXXXXXXXXXX@@@@@",
"@@@@@XXXXXXXXXXXXXXOO.++@@@++.OXXXXXXXXXXXXX@@@@@@",
"@@@@@XXXXXXXXXXXXXXOOOO++@++OOOXXXXXXXXXXXX@@@@@@@",
"@@@@@@@XXXXXXXXXXXXOO.OO+++OO.OXXXXXXXXXX@@@@@@@@@",
"@@@@@@@@@@XXXXXXXXXOOOOOOOOOOOOXXXXXXXXX@@@@@@@@@@",
"@@@@@@@@@@@@XXXXXXX++++++++++++XXXXXX@@@@@@@@@@@@@",
"@@@@@@@@@@@@@XXXXXXOO.OOO.OOO.OXXXXX@@@@@@@@@@@@@@",
"@@@@@@@@@@@@@@@@@@@@@@@@@@@@@@@@@@@@@@@@@@@@@@@@@@",
"@@@@@@@@@@@@@@@@@@@@@@@@@@@@@@@@@@@@@@@@@@@@@@@@@@",
"@@@@@@@@@@@@@@@@@@@@@@@@@@@@@@@@@@@@@@@@@@@@@@@@@@"
};
