/* XPM */
static char *bffad14e48744d3bfc9ba1043634ace5NosFgZjHAS1d0Ahk[] = {
/* columns rows colors chars-per-pixel */
"50 50 10 1 ",
"  c black",
". c #FF3A3A",
"X c #FFE80D",
"o c #58B2FF",
"O c #EEFFAE",
"+ c #9596FE",
"@ c #93CBFA",
"# c #8DEBFC",
"$ c #CBF7FF",
"% c white",
/* pixels */
"@@@@@@@@@@@@@@@@@@@@@@@@@@@@@@@@@@@@@@@@@@@@@@@@@@",
"@@@@@@@@@@@@@@@@@@@@@@@@@@@@@@@@@@@@@@@@@@@@@@@@@@",
"@@@@@@@@@@@@@@@@@@@     @@     @@@@@@@@@@@@@@@@@@@",
"@@@@@@@@@ooooo@@@@@ ... @@ ... @@@@@@@@@@@@@@@@@@@",
"@@@@@@@ooo@@@o@@@@@ OOO @@ OOO @@@@@@@@@@@@@@@@@@@",
"@@@@@@@o@@@@@oo@@@@ OOO @@ OOO @@@@@@@@@@@@@@@@@@@",
"@@@@@@oo@@@@@@o@@@@ OOO @@ OOO @@@@@@@@@@@@@@@@@@@",
"@@@@@@o@@@@@@@o@@@@ OOO @@ OOO @@@@@@@@@@@@@@@@@@@",
"@@@@@@o@@@@@@@o@@@o OOO @@ OOO @@@@@@@@@@@@@@@@@@@",
"@@@@@@o@@@@@@oo@@oo     @@     @@@@@@@@@@@@@@@@@@@",
"@@@@@@oo@@@@@o@@oo@     @@     @@@@@@@@@@@@@@@@@@@",
"@oooo@@o@@@@@o@oo@@     @@     @@@@@@@@@@@@@@@@@@@",
"oo@@oo@oo@@@@o@o@@@     o@     @@@@@@@@@@@@@@@@@@@",
"o@@@@oo@@o@@@@o@@@@     o@     @@@@@@@@@@@@@@@@@@@",
"o@@@@@@oo@@@@@@@@@@ OOO o@ OOO @@@@@@@@@@@@@@@@@@@",
"oo@@@@@@@@@@@@@@@@@ OOO o@ OOO @@@@@@@@@@@@@@@@@@@",
"@oo@@@@@@@ooo@@ooo@ OOO @@ OOO @@@@@@@@@@@@@@@@@@@",
"@@ooo@@@@@o@o@o@@oo OOO @@ OOO @@@@@@@@@@@@@@@@@@@",
"@@@@@o@@@@ooo@oo@@@ ...    ... @@@@@@@@@@@@@@@@@@@",
"@@@@oo@@@@@@@@@ooo@ .......... @@@@@@@@@@@@@@@@@@@",
"@@ooo@@@@@oo@@@@@o  ..........  @@@@@@@@@@@@@@@@@@",
"@oo@@@@@@o@@o@@@@  ............  @@@@@@@@@@@@@@@@@",
"@oo@@@@@@o@@o@@@  .   ..........  @@@@@@@@@@@@@@@@",
"@@o@@@@@@o@@@o@  ....  ..........  @@@@@@@@@@@@@@@",
"@@oo@@@@@o@@@o  ......       .....  @@@@@@@@@@@@@@",
"@@@oo@@@oo@@   ....................   @@@@@@@@@@@@",
"@@@@oo@oo@@  . $$$$$####%%####$$$$$ .  @@@@@@@@@@@",
"@@@@@ooo@@  .. $$$$$$$$#%%#$$$$$$$$ ..  @@@@@@@@@@",
"@@@@@@@@@  .. $$$$$$$$$$##$$$$$$$$$$ ..  @@@@@@@@@",
"@@@@@@@@  .. @$$$$$$$$$$$$$$$$$$$$$$@ ..  @@@@@@@@",
"@@@@@@@ .... @$$$$$$$$$$$$$$$$$$$$$$@ ...  @@@@@@@",
"@@@@@@  .... @$$$$$$$$$$$$$$$$$$$$$$@ ....  @@@@@@",
"@@@@@  ..... @$$$$$$$$$$$$$$$$$$$$$$@ .....  @@@@@",
"@@@@@ ...... @      +  X  X  +      @ ......  @@@@",
"@@@@  ...... @      +  XXXX  +      @ ....... @@@@",
"@@@  ....... @      +  XXXX  +      @ .......  @@@",
"@@@ ......... ++++++++++++++++++++++ ......... @@@",
"@@  ...... .. ++++++++++++++++++++++ .. ......  @@",
"@@ .......   ++++++++++++++++++++++++   ....... @@",
"@@ ........  ++++++++++++++++++++++++  ........ @@",
"@@ .......  @  ++++++++    ++++++++  @  ....... @@",
"@@  ...... @@@  ++++++  @@  ++++++  @@@ ......  @@",
"@@@  ...   @@@@  ++++  @@@@  ++++  @@@@  ....  @@@",
"@@@@     @@@@@@@ +++  @@@@@@  +++ @@@@@@      @@@@",
"@@@@@@@@@@@@@@@@ ... @@@@@@@@ ... @@@@@@@@@@@@@@@@",
"@@@@@@@@@@@@@@@@  .  @@@@@@@@  .  @@@@@@@@@@@@@@@@",
"@@@@@@@@@@@@@@@@@ . @@@@@@@@@@ . @@@@@@@@@@@@@@@@@",
"@@@@@@@@@@@@@@@@@   @@@@@@@@@@   @@@@@@@@@@@@@@@@@",
"@@@@@@@@@@@@@@@@@@@@@@@@@@@@@@@@@@@@@@@@@@@@@@@@@@",
"@@@@@@@@@@@@@@@@@@@@@@@@@@@@@@@@@@@@@@@@@@@@@@@@@@"
};
