/* XPM */
static char *_24f9a65b9a94027f14ee594b4af0f6dhZkbNwuRmSFgWVXM[] = {
/* columns rows colors chars-per-pixel */
"50 50 7 1 ",
"  c #285928",
". c #3A9D3A",
"X c #55CF56",
"o c #58B2FF",
"O c #84F785",
"+ c #AEFFAF",
"@ c #93CBFA",
/* pixels */
"@@@@@@@@@@@@@@@@@@@@@@@@@@@@@@@@@@@@@@@@@@@@@@@@@@",
"@@@@@@@@@@@@@@@@@@@@@@@@@@@@@@@@@@@@@@@@@@@@@@@@@@",
"@@@@@@@@@@@@@@@@@@@@@@@@@@@@@@@@@@@@@@@@@@@@@@@@@@",
"@@@@@@@@@ooooo@@@@@@@@@@@@@@@@@@@@@@@@@@@@@@@@@@@@",
"@@@@@@@ooo@@@o@@@@@@@@@@@@@@@@@@@@@@@@@@@@@@@@@@@@",
"@@@@@@@o@@@@@oo@@@@@@@@@@@@@@@@@@@@@@@@@@@@@@@@@@@",
"@@@@@@oo@@@@@@o@@@@@@@@@@@@@@@@@@@@@@@@@@@@@@@@@@@",
"@@@@@@o@@@@@@@o@@@@@@@@@@@@@@@@@@@@@@@@@@@@@@@@@@@",
"@@@@@@o@@@@@@@o@@@oooo@@@@@@@@@@@@@@@@@@@@@@@@@@@@",
"@@@@@@o@@@@@@oo@@oo@@oo@@@@@@@@@@@@@@@@@@@@@@@@@@@",
"@@@@@@oo@@@@@o@@oo@@@@oo@@@@@@@@@@@@@@@@@@@@@@@@@@",
"@oooo@@o@@@@@o@oo@@@@@@o@@@@@@@@@@@@@@@@@@@@@@@@@@",
"oo@@oo@oo@@@@o@o@@@@@@@oo@@@@@@@@@@@@@@@@@@@@@@@@@",
"o@@@          OOOOOOOOOOOO             @@@@@@@@@@@",
"o@@@  ........OOOOOOOOOOOO............  @@@@@@@@@@",
"oo@@  .....XXXXOOOOOOOOOOOOXXXXXXX.....  @@@@@@@@@",
"@oo@  ....XXXXXXOOOOOOOOOOOOXXXXXXX.....  @@@@@@@@",
"@@oo             OOOOOOOOOOOO              @@@@@@@",
"@@@@    ..........OOOOOOOOOOOO............  @@@@@@",
"@@@@    .....XXXXXXOOOOOOOOOOOOXXXXXXX.....  @@@@@",
"@@oo    ....XXXXXXXXOOOOOOOOOOOOXXXXXXX..... @@@@@",
"@oo@                 OOOOOOOOOOOO            @@@@@",
"@oo@      ...........++++++++++++........... @@@@@",
"@@o@      .....XXXXXX++++++++++++XXXXXX..... @@@@@",
"@@oo      ....XXXXXXX++++++++++++XXXXXXX.... @@@@@",
"@@@o      ...XXXXXXXX++++++++++++XXXXXXXX... @@@@@",
"@@@@      ..XXXO..OXX++++++++++++XXO..OXXX.. @@@@@",
"@@@@      .OXXOO..OOX++++++++++++XOO..OOXXO. @@@@@",
"@@@@      OOXX..XO..X++++++++++++X..OX..XXOO @@@@@",
"@@@@      .OXX..OX..X++++++++++++X..XO..XXO. @@@@@",
"@@@@      ..XXOO..OOX++++++++++++XOO..OOXX.. @@@@@",
"@@@@      ...XXO..OXX++++++++++++XXO..OXX... @@@@@",
"@@@@@     ....XXXXXXX++++++++++++XXXXXXX.... @@@@@",
"@@@@@@    .....XXXXXX++++++++++++XXXXXX..... @@@@@",
"@@@@@@@   ...........++++++++++++........... @@@@@",
"@@@@@@@@             ++++++++++++            @@@@@",
"@@@@@@@@@@@@@@@@@@@@@@@@@@@@@@@@@@@@@@@@@@@@@@@@@@",
"@@@@@@@@@@@@@@@@@@@@@@@@@@@@@@@@@@@@@@@@@@@@@@@@@@",
"@@@@@@@@@@@@@@@@@@@@@@@@@@@@@@@@@@@@@@@@@@@@@@@@@@",
"@@@@@@@@@@@@@@@@@@@@@@@@@@@@@@@@@@@@@@@@@@@@@@@@@@",
"@@@@@@@@@@@@@@@@@@@@@@@@@@@@@@@@@@@@@@@@@@@@@@@@@@",
"@@@@@@@@@@@@@@@@@@@@@@@@@@@@@@@@@@@@@@@@@@@@@@@@@@",
"@@@@@@@@@@@@@@@@@@@@@@@@@@@@@@@@@@@@@@@@@@@@@@@@@@",
"@@@@@@@@@@@@@@@@@@@@@@@@@@@@@@@@@@@@@@@@@@@@@@@@@@",
"@@@@@@@@@@@@@@@@@@@@@@@@@@@@@@@@@@@@@@@@@@@@@@@@@@",
"@@@@@@@@@@@@@@@@@@@@@@@@@@@@@@@@@@@@@@@@@@@@@@@@@@",
"@@@@@@@@@@@@@@@@@@@@@@@@@@@@@@@@@@@@@@@@@@@@@@@@@@",
"@@@@@@@@@@@@@@@@@@@@@@@@@@@@@@@@@@@@@@@@@@@@@@@@@@",
"@@@@@@@@@@@@@@@@@@@@@@@@@@@@@@@@@@@@@@@@@@@@@@@@@@",
"@@@@@@@@@@@@@@@@@@@@@@@@@@@@@@@@@@@@@@@@@@@@@@@@@@"
};
