/* XPM */
static char *_93b3029d5574fe3af07dfd2ec73cb7fBM6TLtjICaGa0Jtv[] = {
/* columns rows colors chars-per-pixel */
"50 50 11 1 ",
"  c #5D1953",
". c #6E1461",
"X c #AA3C9A",
"o c #C64AB4",
"O c #D75DC5",
"+ c #FC7CEA",
"@ c #659DFF",
"# c #FF90EF",
"$ c #FE99F0",
"% c #93CBFA",
"& c white",
/* pixels */
"%%%%%%%%%%%%%%%%%%%%%%%%%%%%%%%%%%%%%%%%%%%%%%%%%%",
"%%%%%%%%%%%%%%%%%%%%%%%%%%%%%%%%%%%%%%%%%%%%%%%%%%",
"%%%%%%%%%%%%%%%%%%%%%%%%%%%%%%%%%%%%%%%%%&&%%%%%%%",
"%%%%%%%%%%%%%%%%%%%%%%%%%%%%%%%%%%%%%&&%&%%&%%%%%%",
"%%%%%%%%%%%%%%%%%%%%%%%%%%%%%%%%%%%%&&%&&%%&%%%%%%",
"%%%%%%%............%%%%%%%%%%%%%%%%%%&%%%%%%&&%%%%",
"%%%%%..XXXXXXXXXX...%%%%%%%%%%%%%%%%%&&%%%%&%%&%%%",
"%%%%%..XXXXXXXXXXXX..%%%%%%%%%%%%%%%&%%%%%%%%%%&%%",
"%%%...XXXXXXX&&&XXXX..%%%%%%%%%%%%%&&%%%&%%&%&&%%%",
"%%%.XXXXXXXXXXX&&&XXX..%%%%%%%%%%%%%&&%&&%%&&%%%%%",
"%%..XXX     XXXX&&&&X..%%%%%%%%%%%%%%&&&%&%%&%%%%%",
"%%.XXXXX   XXXXXXXXXXX.%%%%%%%%%%%%%%%%%%%&&%%%%%%",
"%%.XXXXXX XXXXXXXXXXXX.%%%%%%%%%%%%%%%%%%%%%%%%%%%",
"%%.XX   XXXXXXXXXXXXXX.%%%%%%%%%OOOOOO%%%%%%%%%%%%",
"%%.XXX  XXXXXXXXXXXXXX.%%%%%%OOOO$$$$OOO%%%%%%%%%%",
"%%..XXX XXXXXXXXXXXXX..%%%%OO$$$$$$$$$$OOO%%%%%%%%",
"%%%..XXXXXXXXXXXXXXX..%%%%OO$$$$$$&&&&&$$OO%%%%%%%",
"%%%%.XXXXXXXXXXXXX...%%%%OO$$$$$$$$$$&&&&$OO%%%%%%",
"%%%%..X..XXXXXXXXX.%%%%%%O$$$$$$$$$$$$$&&$$O%%%%%%",
"%%%%%.X%..X...X..X.%%%%%O$$$$$$$$$$$$$$$&&&$OO%%%%",
"%%%%%..%%.X%%.X%%..%%%%%O$$$$$$$$$$$$$$$$$$$$O%%%%",
"%%%%%.X%%X.%%..%%X..%%%%O$$$$$$$$$oooooo$$$$$O%%%%",
"%%%%%..%%X.%%.X.%%X.X%%%O$$$$$$$$$$oooo$$$$$$O%%%%",
"%%%%%.X.%.X%%.X.%%.X.%%OO$$$$oooo$$$oo$$ooo$$O%%%%",
"%%%%%%.X%%.X%%..X%%X..%OO$$$$$ooo$$$$$$$oo$$$O%%%%",
"%%%%%%%..%.X%%%XX.%.X.%OO$$$$$$oo$$$$$$$o$$$$O%%%%",
"%%%%%%%.X%%.X%%%..%%X.%%OO$$$$$$o$$$$$$$$$$$$O%%%%",
"%%%%%%%.X%%X.X%%X.%%.X.%%O$$$$$$$$$$$$$$$$$$O%%%%%",
"%%%%%%%%.X%%%X.%...%%.X%%%O$##$O#####$####$O%%%%%%",
"%%%%%%%%..X%%%X%%XX.%%..%%O$%%$O%%%%O$O%%O$O%%%%%%",
"%%%%%%%%%..%%%..%%.%%%%%OO$O%%$O%%%%O#%%%O$O%%%%%%",
"%%%%%%%%%%%%%%%.%%%%%%%O$$#O%%O$%%%%O$%%%O$O%%%%%%",
"%%%%%%%%%%%%%%%%%%%%%%%O$O%%%%$$%%%OO#%%%%OO%%%%%%",
"%%%%@@@@%%%%%%%%%%%%%%O$%%%%OO$$%%%O$O%%%O$O%%%%%%",
"%%%%@%%%@%%%%%%%%%%%%O$#%%%%O$#%%%O$O%%%%$#O%%%%%%",
"%%%@%%%%@%%%%%%%%%%%O$OO%%%%#$#%%%O#O%%%%#O%%%%%%%",
"%%%@@%%%@%%%%%%%%%OO$OO%%%%%$O%%%O#$%%%%O$O%%%%%%%",
"%@@%@%%%@@@@%%%%%%O$#%%%%%%$#O%%%O$O%%%%O#O%%%%%%%",
"@@%%%%%@@%%%@%%%%O$$O%%%%OO$$%%%%O$O%%%%O#%%%%%%%%",
"@%%%%%%%%%%%@%%%O$$O%%%%%#$O%%%%O$O%%%%%O$%%%%%%%%",
"@@@@%%%%%%@@@%%O$$O%%%%%$$$%%%%%O#O%%%%%O#%%%%%%%%",
"%%@%%@%%%@@%%OO$$O%%%%%O#$O%%%%%#O%%%%%%#O%%%%%%%%",
"%@%%%@%%%@%%O$$OO%%%%%%#$OO%%%%O##%%%%%O+O%%%%%%%%",
"%@%%%@@%%%@%O$OO%%%%%%O$$%%%%%%O#O%%%%%O$%%%%%%%%%",
"%@%%@%@@%@@%%%%%%%%%%%O#O%%%%%%O$%%%%%%OO%%%%%%%%%",
"%@@@@%%@@@%%%%%%%%%%%%%%%%%%%%%OO%%%%%%%%%%%%%%%%%",
"%%%%%%%%%%%%%%%%%%%%%%%%%%%%%%%%%%%%%%%%%%%%%%%%%%",
"%%%%%%%%%%%%%%%%%%%%%%%%%%%%%%%%%%%%%%%%%%%%%%%%%%",
"%%%%%%%%%%%%%%%%%%%%%%%%%%%%%%%%%%%%%%%%%%%%%%%%%%",
"%%%%%%%%%%%%%%%%%%%%%%%%%%%%%%%%%%%%%%%%%%%%%%%%%%"
};
