/* XPM */
static char *_ed75856666a4cf4d9c37d3766adf7f4ZhF2QJOuAhFbCUck[] = {
/* columns rows colors chars-per-pixel */
"50 50 6 1 ",
"  c black",
". c #FF3A3A",
"X c #58B2FF",
"o c #9596FE",
"O c #93CBFA",
"+ c #CBF7FF",
/* pixels */
"OOOOOOOOOOOOOOOOOOOOOOOOOOOOOOOOOOOOOOOOOOOOOOOOOO",
"OOOOOOOOOOOOOOOOOOOOOOOOOOOOOOOOOOOOOOOOOOOOOOOOOO",
"OOOOOOOOOOOOOOOOOOO     OO     OOOOOOOOOOOOOOOOOOO",
"OOOOOOOOOXXXXXOOOOO ... OO ... OOOOOOOOOOOOOOOOOOO",
"OOOOOOOXXXOOOXOOOOO ... OO ... OOOOOOOOOOOOOOOOOOO",
"OOOOOOOXOOOOOXXOOOO ... OO ... OOOOOOOOOOOOOOOOOOO",
"OOOOOOXXOOOOOOXOOOO ... OO ... OOOOOOOOOOOOOOOOOOO",
"OOOOOOXOOOOOOOXOOOO ... OO ... OOOOOOOOOOOOOOOOOOO",
"OOOOOOXOOOOOOOXOOOX ... OO ... OOOOOOOOOOOOOOOOOOO",
"OOOOOOXOOOOOOXXOOXX ... OO ... OOOOOOOOOOOOOOOOOOO",
"OOOOOOXXOOOOOXOOXXO ... OO ... OOOOOOOOOOOOOOOOOOO",
"OXXXXOOXOOOOOXOXXOO ... OO ... OOOOOOOOOOOOOOOOOOO",
"XXOOXXOXXOOOOXOXOOO ... XO ... OOOOOOOOOOOOOOOOOOO",
"XOOOOXXOOXOOOOXOOOO ... XO ... OOOOOOOOOOOOOOOOOOO",
"XOOOOOOXXOOOOOOOOOO ... XO ... OOOOOOOOOOOOOOOOOOO",
"XXOOOOOOOOOOOOOOOOO ... XO ... OOOOOOOOOOOOOOOOOOO",
"OXXOOOOOOOXXXOOXXXO ... OO ... OOOOOOOOOOOOOOOOOOO",
"OOXXXOOOOOXOXOXOOXX ... OO ... OOOOOOOOOOOOOOOOOOO",
"OOOOOXOOOOXXXOXXOOO ...    ... OOOOOOOOOOOOOOOOOOO",
"OOOOXXOOOOOOOOOXXXO .......... OOOOOOOOOOOOOOOOOOO",
"OOXXXOOOOOXXOOOOOX  ..........  OOOOOOOOOOOOOOOOOO",
"OXXOOOOOOXOOXOOOO  ............  OOOOOOOOOOOOOOOOO",
"OXXOOOOOOXOOXOOO  ..............  OOOOOOOOOOOOOOOO",
"OOXOOOOOOXOOOXO  ................  OOOOOOOOOOOOOOO",
"OOXXOOOOOXOOOX  ..................  OOOOOOOOOOOOOO",
"OOOXXOOOXXOO   ....................   OOOOOOOOOOOO",
"OOOOXXOXXOO  . ++++++++++++++++++++ .  OOOOOOOOOOO",
"OOOOOXXXOO  .. ++++++++++++++++++++ ..  OOOOOOOOOO",
"OOOOOOOOO  .. ++++++++++++++++++++++ ..  OOOOOOOOO",
"OOOOOOOO  .. O++++++++++++++++++++++O ..  OOOOOOOO",
"OOOOOOO .... O++++++++++++++++++++++O ...  OOOOOOO",
"OOOOOO  .... O++++++++++++++++++++++O ....  OOOOOO",
"OOOOO  ..... O++++++++++++++++++++++O .....  OOOOO",
"OOOOO ...... O      o        o      O ......  OOOO",
"OOOO  ...... O      o        o      O ....... OOOO",
"OOO  ....... O      o        o      O .......  OOO",
"OOO ......... oooooooooooooooooooooo ......... OOO",
"OO  ...... .. oooooooooooooooooooooo .. ......  OO",
"OO .......   oooooooooooooooooooooooo   ....... OO",
"OO ........  oooooooooooooooooooooooo  ........ OO",
"OO .......  O  oooooooo    oooooooo  O  ....... OO",
"OO  ...... OOO  oooooo  OO  oooooo  OOO ......  OO",
"OOO  ...   OOOO  oooo  OOOO  oooo  OOOO  ....  OOO",
"OOOO     OOOOOOO ooo  OOOOOO  ooo OOOOOO      OOOO",
"OOOOOOOOOOOOOOOO ... OOOOOOOO ... OOOOOOOOOOOOOOOO",
"OOOOOOOOOOOOOOOO  .  OOOOOOOO  .  OOOOOOOOOOOOOOOO",
"OOOOOOOOOOOOOOOOO . OOOOOOOOOO . OOOOOOOOOOOOOOOOO",
"OOOOOOOOOOOOOOOOO   OOOOOOOOOO   OOOOOOOOOOOOOOOOO",
"OOOOOOOOOOOOOOOOOOOOOOOOOOOOOOOOOOOOOOOOOOOOOOOOOO",
"OOOOOOOOOOOOOOOOOOOOOOOOOOOOOOOOOOOOOOOOOOOOOOOOOO"
};
