/* XPM */
static char *_be307f82c6d48fdb6cc9a873c37de1fkNeQTx3dMemTt46s[] = {
/* columns rows colors chars-per-pixel */
"50 50 9 1 ",
"  c black",
". c #FF3A3A",
"X c #FFE80D",
"o c #58B2FF",
"O c #EEFFAE",
"+ c #9596FE",
"@ c #93CBFA",
"# c #8DEBFC",
"$ c #CBF7FF",
/* pixels */
"@@@@@@@@@@@@@@@@@@@@@@@@@@@@@@@@@@@@@@@@@@@@@@@@@@",
"@@@@@@@@@@@@@@@@@@@@@@@@@@@@@@@@@@@@@@@@@@@@@@@@@@",
"@@@@@@@@@@@@@@@@@@@@@       @@@@@@@@@@@@@@@@@@@@@@",
"@@@@@@@@@ooooo@@@@@@@ ..... @@@@@@@@@@@@@@@@@@@@@@",
"@@@@@@@ooo@@@o@@@@@@@ ..OOO @@@@@@@@@@@@@@@@@@@@@@",
"@@@@@@@o@@@@@oo@@@@@@ ..OOO @@@@@@@@@@@@@@@@@@@@@@",
"@@@@@@oo@@@@@@o@@@@@@ ..OOO @@@@@@@@@@@@@@@@@@@@@@",
"@@@@@@o@@@@@@@o@@@@@@ ..OOO @@@@@@@@@@@@@@@@@@@@@@",
"@@@@@@o@@@@@@@o@@@ooo ..OOO @@@@@@@@@@@@@@@@@@@@@@",
"@@@@@@o@@@@@@oo@@oo@@ ..    @@@@@@@@@@@@@@@@@@@@@@",
"@@@@@@oo@@@@@o@@oo@@@ ..    @@@@@@@@@@@@@@@@@@@@@@",
"@oooo@@o@@@@@o@oo@@@@ ..    @@@@@@@@@@@@@@@@@@@@@@",
"oo@@oo@oo@@@@o@o@@@@@ ..    @@@@@@@@@@@@@@@@@@@@@@",
"o@@@@oo@@o@@@@o@@@@@@ ..    @@@@@@@@@@@@@@@@@@@@@@",
"o@@@@@@oo@@@@@@@@@@@@ ..OOO @@@@@@@@@@@@@@@@@@@@@@",
"oo@@@@@@@@@@@@@@@@@@@ ..OOO @@@@@@@@@@@@@@@@@@@@@@",
"@oo@@@@@@@ooo@@ooo@@@ ..OOO @@@@@@@@@@@@@@@@@@@@@@",
"@@ooo@@@@@o@o@o@@oooo ..OOO  @@@@@@@@@@@@@@@@@@@@@",
"@@@@@o@@@@ooo@oo@@@@  ......  @@@@@@@@@@@@@@@@@@@@",
"@@@@oo@@@@@@@@@ooo@@ ........ @@@@@@@@@@@@@@@@@@@@",
"@@ooo@@@@@oo@@@@@ooo ........ @@@@@@@@@@@@@@@@@@@@",
"@oo@@@@@@o@@o@@@@@@  ........  @@@@@@@@@@@@@@@@@@@",
"@oo@@@@@@o@@o@@@@@@ ....... .. @@@@@@@@@@@@@@@@@@@",
"@@o@@@@@@o@@@o@@@@  ........    @@@@@@@@@@@@@@@@@@",
"@@oo@@@@@o@@@o@@@  ............  @@@@@@@@@@@@@@@@@",
"@@@oo@@@oo@@@o@@  ..............  @@@@@@@@@@@@@@@@",
"@@@@oo@oo@@@@oo  $$$$$ #### $$$$#  @@@@@@@@@@@@@@@",
"@@@@@ooo@@@@@@  $$$$$  ####  $$$##  @@@@@@@@@@@@@@",
"@@@@@@@@@@@@@  $$$$$$ ###### $$$$$$  @@@@@@@@@@@@@",
"@@@@@@@@@@@@  $$$$$$  ......  $$$$$$  @@@@@@@@@@@@",
"@@@@@@@@@@@@ $$$$$$$ ........ $$$$$$$ @@@@@@@@@@@@",
"@@@@@@@@@@@@ $$$$$$  ........  $$$$$$ @@@@@@@@@@@@",
"@@@@@@@@@@@@ $$$$$$ .......... $$$$$$ @@@@@@@@@@@@",
"@@@@@@@@@@@@   ++   ..........  ++  X @@@@@@@@@@@@",
"@@@@@@@@@@@@   ++   ..........  ++  X @@@@@@@@@@@@",
"@@@@@@@@@@@@   ++   ..........  ++  X @@@@@@@@@@@@",
"@@@@@@@@@@@@ ++++++ .......... ++++++ @@@@@@@@@@@@",
"@@@@@@@@@@@@ ++++++ .......... ++++++ @@@@@@@@@@@@",
"@@@@@@@@@@@@ ++++++ .......... ++++++ @@@@@@@@@@@@",
"@@@@@@@@@@@@ ++++++ .......... ++++++ @@@@@@@@@@@@",
"@@@@@@@@@@@@  +++++ .......... +++++  @@@@@@@@@@@@",
"@@@@@@@@@@@@@  ++++  ........  ++++  @@@@@@@@@@@@@",
"@@@@@@@@@@@@@@   +++  ......  +++   @@@@@@@@@@@@@@",
"@@@@@@@@@@@@@@@@  +++        +++  @@@@@@@@@@@@@@@@",
"@@@@@@@@@@@@@@@@@      ....      @@@@@@@@@@@@@@@@@",
"@@@@@@@@@@@@@@@@@@@@@@  ..  @@@@@@@@@@@@@@@@@@@@@@",
"@@@@@@@@@@@@@@@@@@@@@@@ .. @@@@@@@@@@@@@@@@@@@@@@@",
"@@@@@@@@@@@@@@@@@@@@@@@    @@@@@@@@@@@@@@@@@@@@@@@",
"@@@@@@@@@@@@@@@@@@@@@@@@@@@@@@@@@@@@@@@@@@@@@@@@@@",
"@@@@@@@@@@@@@@@@@@@@@@@@@@@@@@@@@@@@@@@@@@@@@@@@@@"
};
