/* XPM */
static char *aa6c0bf5e75348a18d7683a76c8339aagsaGIyu7THyuxR1G[] = {
/* columns rows colors chars-per-pixel */
"50 50 10 1 ",
"  c #E83C6D",
". c #FC326C",
"X c #C84268",
"o c #405AFE",
"O c #FF749C",
"+ c #409CFA",
"@ c #58B2FF",
"# c #2BD5FF",
"$ c #93CBFA",
"% c #ACFCF7",
/* pixels */
"$$$$$$$$$$$$$$$$$$$$$$$$$$$$$$$$$$$$$$$$$$$$$$$$$$",
"$$$$$$$$$$$$$$$$$$$$$$$$$$#o$$$$$$$$$$$$$$$$$$$$$$",
"$$$$$$$$$$$$$$$$$$$$$$$$$$ooo$#oo$$$$$$$$$$$$$$$$$",
"$$$$$$$$$@@@@@$$$$$$$$$$$#o%ooo%o$$$$$$$$$$$$$$$$$",
"$$$$$$$@@@$$$@$$$$$$$$$$ooo%%+%##oo$$$oooo$$$$$$$$",
"$$$$$$$@$$$$$@@$$$$$$$$$$o#%+++%#o#$$oo%%o$$$$$$$$",
"$$$$$$@@$$$$$$@$$$$$$$$$Oo#++%##o#$$$o%%%o$$$$$$$$",
"$$$$$$@$$$$$$$@$$$$$$$$OOo#++#o$$$$o#%%oo$$$$$$$$$",
"$$$$$$@$$$$$$$@$$$@O@@.XX.o+%o$$$$oo%%%o$$$$$o$$$$",
"$$$$$$@$$$$$$@@$$@OXX@OO..o+oo$$$$o%%oo$$$$oo#o$$$",
"$$$$$$@@$$$$$@$$@@O.......o+%$$$$$o%+%$$$$$#+%o$$$",
"$@@@@$$@$$$$$@$@@$OO......#+%$$$$$o%+o$$$#o#%%o$$$",
"@@$$@@$@@$$$$@$@$$OX......#+o$$$$$o%+o$$o#%+o#$$$$",
"@$$$$@@$$@$$$$@$$$.O.....##+%$$$$o#+%oo##%+oo$$$$$",
"@$$$$$$@@$$$$$$$$$$O.....o%%$$$$$o#+%o%%++o$$$$$$$",
"@@$$$O X$$$$$$O $$$.O....oo%$$$$$o%+%%++oo$$$$$$$$",
"$@@$OOXX$$@@@OOX.@$$.O...oo+$$$$oo+++%%oo$$$$$$$$$",
"$$@@O....$@$@OO.X@@@@O...#%+$$$$o%++%#o$$$$$$$$$$$",
"$$$$.O....@@@O...$$$$...%o%+$$$o#++%oo$$$$$$$oo$$$",
"$$$$@OO....$$.O..@$$$O...o%#$$oo++o%o$$$$$$$$o%o$$",
"$$@@@$$OO...$$O...@@$....o%oooo%+%oo$$$o$$$$oo+o$$",
"$@@$$$$$OO...$O.....@O..oo%%%%++%o$$$$oo$$$o%++o$$",
"$@@$$$$$$@...O.....O.O...#+%+%o#oo$$$o%o$$oo++%o$$",
"$$@$$$$$$@$...............#++%oo$$$o%o%o$$+++%o$$$",
"$$@@$$OOXO.O....O.........o+%o$$$$$%o+%o$o%++o$$$$",
"$$$OXOO...................#++%$$$$oo+%$$o%++o%$$$$",
"$$$OX.....XX.@@$$.OO.....#o%+o$$$%o++$$$o++%$$$$o$",
"$$OO...OOO$$$$@@@$$OOO...#ooo$$$$o%%%$$o%+o$$$oo#$",
"$$O..OO.$$$$$$XO@@@@$$....#%+$$$$o%+%%+++o$$oo+%o$",
"$$$$$$$$$$$$$OOOXXX$$$....o+$$$$$o+%+++oo$$oo+%o$$",
"$$$$$$$$$$$$$XOO.....$...oo++$$ooo+%%ooo$$o+%++o$$",
"$$$$$OOO$$$$$$$OOOO.......o+o%oo%%++o$$$$oo++o$$$$",
"$$$$$OOX.O$$$$$$$..O......#+%%+++%++o$$$o%++%o$$$$",
"$$$$$$.XX..O$$$$$$$.O.....o%++%+%#%%o$$o++++oo$$$$",
"$$$$$$$O.......$$$$$OO....o%++%+%ooo$$$o++%o$$$$$$",
"$$$$$$$O.OO.....$$$$$O....#%+++%+%oo%%o#+%o$$$$$$$",
"$$$OO$$$$$$.O.......$$....o++%#++++%++++%#o$$$$$$$",
"$$.OXX$$$$$$$OO............%#++++#++%++#oo$$$$$$$$",
"$$$.X..X$$$$$$$OOO.........++%+++++%+%oo$$$$$$$$$$",
"$$$OOO.XX$$$$$$$$$OOO.....o+++++o%%ooo$$$$$$$$$$$$",
"$$$$$.O.......$$$$$$$....oo#%+o%$oo$$$$$$$$$$$$$$$",
"$$$$......O.O....$$$$$....o%++$$$$$$$$$$$$$$$$$$$$",
"$$OO...OOO$$$O........$...o+o+oooooo$$$$$o%%o$$$$$",
"$$XX.OO$$$$$OO............o$oo#++#++o#o+o++++o$$$$",
"$$OXO$$$$O.O.X..O.OO.O....ooooo++++++++++#%#+o$$$$",
"$$$$$$OOOOX.O.O.$$$$$.....$$$$$oo#o#o#++#oo+++$$$$",
"$$$$$.O....X$$$$$$$$$OO...$$$$$$$$$%oo$$$$$++$$$$$",
"$$$$$$XXOX$$$$$$$$$$$$$..$$$$$$$$$$$$$$$$$$$$$$$$$",
"$$$$$$$$$$$$$$$$$$$$$$$$$$$$$$$$$$$$$$$$$$$$$$$$$$",
"$$$$$$$$$$$$$$$$$$$$$$$$$$$$$$$$$$$$$$$$$$$$$$$$$$"
};
